<svg xmlns="http://www.w3.org/2000/svg" width="256" height="256" viewBox="0 0 256 256">
  <defs>
    <style>
      .cls-1 {
        fill: #f3e5ab;
      }

      .cls-1, .cls-2, .cls-4 {
        fill-rule: evenodd;
      }

      .cls-2 {
        fill: #9f7d5f;
      }

      .cls-3 {
        fill: #323c42;
        stroke: #f3e5ab;
        stroke-width: 3px;
      }

      .cls-4 {
        fill: #fe5b63;
      }
    </style>
  </defs>
  <path id="paper" class="cls-1" d="M106.438,3.131H222.194A28.371,28.371,0,0,1,250.565,31.5V137.045H187.013c-10.288,10.289-46,46-57.878,57.878,0,17.02-1.135,41.623-1.135,53.339H33.806A28.371,28.371,0,0,1,5.435,219.89V104.134C5.435,49.05,39.862,3.131,106.438,3.131ZM-294.17,41.717"/>
  <path id="fold" class="cls-2" d="M173.478,137.045h77.087C128.8,170.718,244.951,209.771,128,248.262V177.934C128,155.352,148.361,137.045,173.478,137.045Zm3.638,21.262"/>
  <g id="Fold_Lines" data-name="Fold Lines">
    <path id="Line_1" data-name="Line 1" class="cls-1" d="M131.067,162.815l-0.621-2.315,96.072-25.743,0.621,2.315Z"/>
    <path id="Line_1_copy_22" data-name="Line 1 copy 22" class="cls-1" d="M127.629,176.433l-0.588-2.193,90.985-24.379,0.587,2.193Z"/>
    <path id="Line_1_copy_23" data-name="Line 1 copy 23" class="cls-1" d="M127.629,187.782l-0.588-2.193,90.985-24.379,0.587,2.192Z"/>
    <path id="Line_1_copy_24" data-name="Line 1 copy 24" class="cls-1" d="M127.629,199.13l-0.588-2.192,90.985-24.379,0.587,2.192Z"/>
    <path id="Line_1_copy_25" data-name="Line 1 copy 25" class="cls-1" d="M127.629,210.479l-0.588-2.193,90.985-24.379,0.587,2.193Z"/>
    <path id="Line_1_copy_26" data-name="Line 1 copy 26" class="cls-1" d="M127.629,221.827l-0.588-2.192,90.985-24.379,0.587,2.192Z"/>
    <path id="Line_1_copy_27" data-name="Line 1 copy 27" class="cls-1" d="M127.629,233.176l-0.588-2.192,90.985-24.379,0.587,2.192Z"/>
    <path id="Line_1_copy_28" data-name="Line 1 copy 28" class="cls-1" d="M127.629,244.525l-0.588-2.193,90.985-24.379,0.587,2.193Z"/>
    <path id="Line_1_copy" data-name="Line 1 copy" class="cls-1" d="M131.033,151.466l-0.587-2.193,90.984-24.379,0.588,2.193Z"/>
  </g>
  <g id="Plus">
    <circle id="Plus_Backdrop" data-name="Plus Backdrop" class="cls-3" cx="194.375" cy="197.75" r="53.906"/>
    <path id="Plus_Vertical" data-name="Plus Vertical" class="cls-4" d="M193.608,157.473h2.7a10,10,0,0,1,10,10v61.71a10,10,0,0,1-10,10h-2.7a10,10,0,0,1-10-10v-61.71A10,10,0,0,1,193.608,157.473Z"/>
    <path id="Plus_Horizontal" data-name="Plus Horizontal" class="cls-4" d="M235.812,196.979v2.7a10,10,0,0,1-10,10H164.1a10,10,0,0,1-10-10v-2.7a10,10,0,0,1,10-10h61.71A10,10,0,0,1,235.812,196.979Z"/>
  </g>
</svg>
