<svg xmlns="http://www.w3.org/2000/svg" width="18" height="18" viewBox="0 0 30 30">
  <defs>
    <style>
      .cls-1 {
        fill: currentColor;
        fill-rule: evenodd;
      }
    </style>
  </defs>
  <path id="Color_Fill_2" data-name="Color Fill 2" class="cls-1" d="M14.553,29.787C18.328,25.886,24.225,19.9,28,16v7c0.919,0,.042-0.038.865-0.038V15a12.917,12.917,0,0,0-2.2-10.237A12.2,12.2,0,0,0,14.553.213Q10.988,3.908,7.423,7.6c-2.392,2.483-4.784,4.967-7.13,7.39A12.859,12.859,0,0,0,2.443,25.237,12.144,12.144,0,0,0,14.553,29.787ZM25.309,14.993c-0.549.144-1.115-2.448-3.127-3.231-1.508-.587-2.443.19-3.9-0.247C15.563,10.7,13.489,6.858,14.365,5.3c1.016-1.805,6.544-1.515,9.381,1.615C26.465,9.916,26.049,14.8,25.309,14.993Zm3.462-1A33.229,33.229,0,0,0,29,22c0.407,2.733,1.065,4.947-.233,6.359-1.424,1.549-4.909,1.813-6.372,0A3.075,3.075,0,0,1,22,25a3.036,3.036,0,0,1,4-1c0.8,0.6.713,1.977,1,2,0.24,0.019.687-.964,1-3A76.32,76.32,0,0,0,28.771,13.988Zm-1.9,5.851"/>
</svg>
