<svg xmlns="http://www.w3.org/2000/svg" width="256" height="256" viewBox="0 0 256 256">
  <defs>
    <style>
      .cls-1 {
        fill: #9f7d5f;
      }

      .cls-1, .cls-2 {
        fill-rule: evenodd;
      }

      .cls-2 {
        fill: #f3e5ab;
      }
    </style>
  </defs>
  <path id="Color_Fill_1" data-name="Color Fill 1" class="cls-1" d="M-29.469,214m140,3a165.15,165.15,0,0,0-89,2c-3.268.261-6.01-.352-8-2a10.541,10.541,0,0,1-3-5c-3.091-11.332-.636-115.381,0-141,0.032-.109.067-0.214,0.107-0.32,0.882-2.363,3.521-3.86,6.893-4.68h8V178a20.286,20.286,0,0,0,3,7c5.092,7.477,14.724,10.44,24,10A86.6,86.6,0,0,1,110.531,217Z"/>
  <path id="Color_Fill_2" data-name="Color Fill 2" class="cls-2" d="M123.531,210V74a82.186,82.186,0,0,0-20-21C87.977,41.638,69,36.348,49.531,37a12.9,12.9,0,0,0-11,6V176a7.071,7.071,0,0,0,6,6,109.658,109.658,0,0,1,52,10A107.911,107.911,0,0,1,123.531,210Z"/>
  <path id="Color_Fill_1-2" data-name="Color Fill 1" class="cls-1" d="M286,214m-140,3a165.151,165.151,0,0,1,89,2c3.268,0.261,6.01-.352,8-2a10.543,10.543,0,0,0,3-5c3.091-11.332.636-115.381,0-141-0.032-.109-0.067-0.214-0.107-0.32-0.882-2.363-3.521-3.86-6.893-4.68h-8V178a20.288,20.288,0,0,1-3,7c-5.092,7.477-14.724,10.44-24,10A86.6,86.6,0,0,0,146,217Z"/>
  <path id="Color_Fill_2-2" data-name="Color Fill 2" class="cls-2" d="M133,210V74a82.186,82.186,0,0,1,20-21c15.555-11.362,34.528-16.652,54-16a12.9,12.9,0,0,1,11,6V176a7.071,7.071,0,0,1-6,6,109.657,109.657,0,0,0-52,10A107.909,107.909,0,0,0,133,210Z"/>
</svg>
