<svg xmlns="http://www.w3.org/2000/svg" width="256" height="256" viewBox="0 0 256 256">
  <defs>
    <style>
      .cls-1 {
        fill-rule: evenodd;
        fill: currentColor;
      }
    </style>
  </defs>
  <path id="Line_1" data-name="Line 1" class="cls-1" d="M233.637,244.744V55.778A151.277,151.277,0,0,0,192.428,26.6C160.379,10.813,121.287,3.462,81.167,4.369A36.961,36.961,0,0,0,66.744,7.148,24.437,24.437,0,0,0,58.5,12.705V197.5a9.213,9.213,0,0,0,4.121,5.557,17.937,17.937,0,0,0,8.242,2.779c37.129-1.254,73.771,3.4,107.141,13.9A249.768,249.768,0,0,1,233.637,244.744ZM211.4,114.088v41.7a123.616,123.616,0,0,0-62.548-27.8v62.548l-69.5-83.4,69.5-83.4V86.289A167,167,0,0,1,211.4,114.088ZM27.923,39.031"/>
  <path id="Color_Fill_1" data-name="Color Fill 1" class="cls-1" d="M-31.106,244.744m260.573,6.95c-21.819-5.57-110.227-10.692-132.7-9.73a229.487,229.487,0,0,0-56.988,9.73c-4.542.363-8.354-.489-11.12-2.78a14.651,14.651,0,0,1-4.17-6.95c-4.3-15.751-.884-160.374,0-195.983,0.045-.151.094-0.3,0.149-0.444,1.227-3.284,4.894-5.365,9.581-6.506h11.12V194.706c0,14.5.485,18.6,2.041,22.239,2.416,4.067,22.594,2,35.487,1.39,15.234-.051,73.359,5.037,88.219,8.34C187.843,230.4,218.819,242.193,229.467,251.694Z"/>
</svg>
