<svg xmlns="http://www.w3.org/2000/svg" width="256" height="256" viewBox="0 0 256 256">
  <defs>
    <style>
      .cls-1 {
        fill: #f3e5ab;
      }

      .cls-1, .cls-2, .cls-3 {
        fill-rule: evenodd;
      }

      .cls-2 {
        fill: #423832;
      }

      .cls-3 {
        fill: #9f7d5f;
      }
    </style>
  </defs>
  <path id="Color_Fill_1_copy_4" data-name="Color Fill 1 copy 4" class="cls-1" d="M133.045,173.433L233.691,98.1H22.309l100.646,75.331A10.723,10.723,0,0,0,133.045,173.433Zm0-150.4L233.691,98.1H22.309l100.646-75.07A10.722,10.722,0,0,1,133.045,23.032Z"/>
  <g>
    <path class="cls-2" d="M128,133.644a6.548,6.548,0,1,1-6.547,6.547A6.547,6.547,0,0,1,128,133.644Z"/>
    <path class="cls-2" d="M128,111.2a3.741,3.741,0,0,1,3.741,3.741v24.318a3.741,3.741,0,0,1-7.482,0V114.938A3.741,3.741,0,0,1,128,111.2Z"/>
    <path id="Rectangle_2_copy" data-name="Rectangle 2 copy" class="cls-2" d="M163.344,122.408a3.742,3.742,0,0,1-1.488,5.078l-31.185,17.05a3.742,3.742,0,0,1-3.59-6.566l31.186-17.049A3.74,3.74,0,0,1,163.344,122.408Z"/>
    <path id="Triangle_1_copy" data-name="Triangle 1 copy" class="cls-2" d="M127.773,90.615l-4.45-22.11a9.012,9.012,0,0,1,4.342-1.277,8.715,8.715,0,0,1,4.072.942Q129.755,79.392,127.773,90.615Z"/>
    <path id="Triangle_1_copy_4" data-name="Triangle 1 copy 4" class="cls-2" d="M102.959,100.65L88.639,83.226a9.017,9.017,0,0,1,3.233-3.168,8.717,8.717,0,0,1,4.037-1.082Z"/>
    <path id="Triangle_1_copy_6" data-name="Triangle 1 copy 6" class="cls-2" d="M86.032,117.629l-21.314-7.374a9.014,9.014,0,0,1,1.1-4.39,8.715,8.715,0,0,1,2.877-3.033Z"/>
    <path id="Triangle_1_copy_5" data-name="Triangle 1 copy 5" class="cls-2" d="M153.567,100.65l14.32-17.424a9.019,9.019,0,0,0-3.233-3.168,8.715,8.715,0,0,0-4.037-1.082Z"/>
    <path id="Triangle_1_copy_7" data-name="Triangle 1 copy 7" class="cls-2" d="M170.494,117.629l21.314-7.374a9.012,9.012,0,0,0-1.1-4.39,8.709,8.709,0,0,0-2.877-3.033Z"/>
  </g>
  <path id="Color_Fill_1_copy_3" data-name="Color Fill 1 copy 3" class="cls-3" d="M128,189h1c9.24,0,14.778-7.992,20-8a5.734,5.734,0,0,1,3.439,1.172c28.1,21.5,52.882,38.241,81.5,59.057H22.065c28.614-20.816,56.4-37.552,84.5-59.057C113.01,177.433,116.652,189,128,189Zm24-11,9-6"/>
  <path id="Color_Fill_1_copy" data-name="Color Fill 1 copy" class="cls-3" d="M92,165.184L15.281,106.81V234.692L92,176.318A7.016,7.016,0,0,0,92,165.184Z"/>
  <path id="Color_Fill_1_copy_2" data-name="Color Fill 1 copy 2" class="cls-3" d="M164,165.184l76.715-58.374V234.692L164,176.318A7.014,7.014,0,0,1,164,165.184Z"/>
  <path id="Color_Fill_1" data-name="Color Fill 1" class="cls-2" d="M40,112c12.136-37.771,48.449-63.4,88-63.47,39.3-.066,74.537,26.065,87,63.47l-10,7c-10.927-35.543-38.8-58.311-76.065-58.311C94.749,60.689,60.289,85.385,50,119Zm111,9"/>
</svg>
